<svg role="img" viewBox="0 0 24 24" xmlns="http://www.w3.org/2000/svg">
  <path
    d="M 21.255071,20.629393 18.43951,17.813831 a 0.5590077,0.5590077 0 0 0 -0.6841,-0.08209 6.6983195,6.6983195 0 0 1 -6.920164,0 0.56291684,0.56291684 0 0 0 -0.6841,0.08209 l -2.8155614,2.815562 a 0.56291684,0.56291684 0 0 0 -0.1006604,0.674327 0.55705312,0.55705312 0 0 0 0.1622295,0.181775 11.727434,11.727434 0 0 0 13.7924393,0 0.56682599,0.56682599 0 0 0 0.233572,-0.413392 0.56291684,0.56291684 0 0 0 -0.168094,-0.44271 z m 0.002,-17.2666924 -2.814584,2.8145842 A 0.55607584,0.55607584 0 0 1 17.757364,6.2593769 6.7012514,6.7012514 0 0 0 8.7985821,8.1699714 6.7061378,6.7061378 0 0 0 7.6043383,11.778112 6.7041832,6.7041832 0 0 0 8.5601242,15.456617 0.55998498,0.55998498 0 0 1 8.4790095,16.13974 L 5.663448,18.954324 A 0.55412127,0.55412127 0 0 1 4.8190727,18.892755 11.720593,11.720593 0 0 1 6.8899421,2.9121717 11.717661,11.717661 0 0 1 21.19448,2.5163708 0.55314398,0.55314398 0 0 1 21.42121,2.9248764 0.55705312,0.55705312 0 0 1 21.257026,3.3627006 Z M 14.300703,15.345206 a 3.3491597,3.3491597 0 1 0 0,-6.698319 3.3491597,3.3491597 0 0 0 0,6.698319 z"
    fill='none' stroke="#AC62FD" stroke-width="1.5" />
</svg>