<svg t="1747034741794" class="icon" viewBox="0 0 1024 1024" version="1.1"
    xmlns="http://www.w3.org/2000/svg" p-id="10790"
    data-spm-anchor-id="a313x.search_index.0.i1.40843a81QXZWGS" width="32" height="32">
    <path
        d="M606.7 662.9c0 96.3 78 174.3 174.2 174.3s174.3-78 174.3-174.3-78-174.2-174.3-174.2c-96.2 0-174.2 78-174.2 174.2z m33.3 0c0-77.8 63.1-141 140.9-141 77.9 0 141 63.1 141 141s-63.1 140.9-141 140.9c-77.8 0-140.9-63-140.9-140.9z m44.8-39.7h84.8c9 0 16.4-7.3 16.4-16.4V565c0-9 5.2-11.2 11.5-4.8l91.2 91.2c6.4 6.4 6.4 16.8 0 23.1l-91.2 91.2c-6.4 6.4-11.5 4.2-11.5-4.8V719c0-9-7.4-16.3-16.4-16.3h-84.8c-9 0-16.4-7.4-16.4-16.4v-46.7c0-9.1 7.4-16.4 16.4-16.4zM241 409.5h-72.1v-43.2c0-15.1-0.8-25.3-2.5-30.6-1.6-5.4-4.7-8-9.1-8-4.4 0-7.4 2.4-8.9 7.1-1.5 4.7-2.3 15.3-2.3 31.6v176.8c0 13.4 1.1 23.4 3.4 30.1 2.3 6.7 5.6 10 10 10 5.2 0 8.7-3.5 10.5-10.4 1.8-7 2.7-20.1 2.7-39.5v-44.6H241c-0.1 29.9-0.9 52.4-2.2 67.4-1.3 15-5.6 30.3-12.7 46s-16.4 27.6-27.9 35.6-25.7 12-42.6 12c-21.6 0-38.7-5.5-51.3-16.5-12.6-11-21.5-26.5-26.8-46.3-5.2-19.9-7.9-48.1-7.9-84.6V395.7c0-31.8 2.1-55.8 6.4-72 4.3-16.2 13.4-30.6 27.4-43.4 14-12.7 31-19.1 51.1-19.1 19.9 0 37 6.3 51.1 18.9 14.1 12.6 23.5 28.5 28.2 47.7 4.9 19.3 7.2 46.5 7.2 81.7zM436.6 399.6v91.8c0 33.7-1.1 58.4-3.4 74.1-2.3 15.7-7.1 30.4-14.6 44.1-7.4 13.7-17 23.7-28.7 30.2s-25.1 9.7-40.2 9.7c-16.9 0-31.2-2.8-42.9-8.3-11.7-5.6-20.8-13.9-27.3-25.1-6.5-11.2-11.1-24.8-13.9-40.7-2.8-15.9-4.2-39.8-4.2-71.6v-96c0-34.8 2.5-62 7.6-81.6 5-19.6 14.1-35.3 27.2-47.2 13.1-11.9 29.9-17.8 50.3-17.8 17.2 0 31.9 3.8 44.2 11.4 12.3 7.6 21.8 17.6 28.5 29.8 6.7 12.2 11.3 24.9 13.7 37.8s3.7 32.9 3.7 59.4z m-76.4-28.2c0-19.2-0.7-31.3-2.1-36.3-1.4-5-4.4-7.5-8.9-7.5s-7.6 2.5-9.1 7.5-2.3 17.1-2.3 36.3v169.2c0 17.7 0.8 29.2 2.3 34.6 1.5 5.4 4.5 8 8.9 8 4.5 0 7.5-2.4 9-7.3 1.4-4.9 2.2-15.4 2.2-31.6V371.4zM580.1 642.8c2.5-49.7 23.2-94.5 55.5-128.1V185.6h-76.4v106.3c-6.4-10.2-13.6-17.8-21.5-22.9-7.9-5.1-16.6-7.6-26-7.6-12.2 0-22.8 4.6-31.6 13.7s-14.5 19.7-16.9 31.8c-2.5 12.1-3.7 32.5-3.7 61.3v175.4c0 27.7 1.2 47.6 3.7 59.9 2.5 12.2 8 23 16.7 32.3 8.7 9.3 19 14 30.8 14 8.8 0 17.3-2.8 25.4-8.5 8.1-5.7 15.8-14.1 23.1-25.5V643h20.9z m-23.3-67.6c-1.6 5.4-4.9 8-9.8 8-4.3 0-7.2-2.4-8.7-7.2-1.5-4.8-2.3-14.8-2.3-30.1V362.4c0-14.7 0.8-24.1 2.4-28.4 1.6-4.2 4.6-6.4 9.2-6.4 4.7 0 7.8 2.4 9.4 7.1 1.6 4.7 2.4 13.9 2.4 27.7v173.4c-0.2 20.9-1 34-2.6 39.4zM778.9 453.9c19.7 0 38.7 2.9 56.6 8.2h0.6v-49.7c0-36.3-2.8-64.5-8.4-84.6-5.6-20.1-15.4-36.1-29.3-48.3-13.9-12.1-31.6-18.2-53.1-18.2-17.5 0-33 5-46.5 15.1s-23.2 24.6-29.1 43.5c-5.9 18.9-8.9 44.8-8.9 77.5v95.3c33.1-24.4 73.9-38.8 118.1-38.8z m-41.7-80.2c0-21.1 0.6-34 1.9-38.8 1.3-4.8 4.5-7.2 9.8-7.2 4.3 0 7.1 2.8 8.5 8.5 1.4 5.6 2.1 18.2 2.1 37.6v27.4h-22.3v-27.5z"
        fill="#AC62FD" p-id="10791" data-spm-anchor-id="a313x.search_index.0.i0.40843a81QXZWGS"
        class="selected"></path>
</svg>